<?xml version="1.0" encoding="UTF-8" standalone="no"?>
<!DOCTYPE svg PUBLIC "-//W3C//DTD SVG 1.1//EN"
 "http://www.w3.org/Graphics/SVG/1.1/DTD/svg11.dtd">
<!-- Generated by graphviz version 2.42.4 (0)
 -->
<!-- Title: G Pages: 1 -->
<svg width="348pt" height="118pt"
 viewBox="0.00 0.00 347.50 118.00" xmlns="http://www.w3.org/2000/svg" xmlns:xlink="http://www.w3.org/1999/xlink">
<g id="graph0" class="graph" transform="scale(1 1) rotate(0) translate(4 114)">
<title>G</title>
<polygon fill="white" stroke="transparent" points="-4,4 -4,-114 343.5,-114 343.5,4 -4,4"/>
<!-- User -->
<g id="node1" class="node">
<title>User</title>
<polygon fill="none" stroke="black" points="39.5,-73.5 39.5,-109.5 93.5,-109.5 93.5,-73.5 39.5,-73.5"/>
<text text-anchor="middle" x="66.5" y="-87.8" font-family="Times,serif" font-size="14.00">User</text>
</g>
<!-- Route -->
<g id="node2" class="node">
<title>Route</title>
<polygon fill="none" stroke="black" points="0,-0.5 0,-36.5 59,-36.5 59,-0.5 0,-0.5"/>
<text text-anchor="middle" x="29.5" y="-14.8" font-family="Times,serif" font-size="14.00">Route</text>
</g>
<!-- User&#45;&gt;Route -->
<g id="edge1" class="edge">
<title>User&#45;&gt;Route</title>
<path fill="none" stroke="black" d="M57.54,-73.31C53.18,-64.94 47.84,-54.7 43,-45.4"/>
<polygon fill="black" stroke="black" points="46.1,-43.78 38.37,-36.53 39.89,-47.01 46.1,-43.78"/>
</g>
<!-- Favorite -->
<g id="node3" class="node">
<title>Favorite</title>
<polygon fill="none" stroke="black" points="77.5,-0.5 77.5,-36.5 153.5,-36.5 153.5,-0.5 77.5,-0.5"/>
<text text-anchor="middle" x="115.5" y="-14.8" font-family="Times,serif" font-size="14.00">Favorite</text>
</g>
<!-- User&#45;&gt;Favorite -->
<g id="edge2" class="edge">
<title>User&#45;&gt;Favorite</title>
<path fill="none" stroke="black" d="M78.36,-73.31C84.26,-64.77 91.5,-54.27 98.02,-44.82"/>
<polygon fill="black" stroke="black" points="100.95,-46.75 103.75,-36.53 95.19,-42.77 100.95,-46.75"/>
</g>
<!-- PointOfInterest -->
<g id="node4" class="node">
<title>PointOfInterest</title>
<polygon fill="none" stroke="black" points="149,-73.5 149,-109.5 276,-109.5 276,-73.5 149,-73.5"/>
<text text-anchor="middle" x="212.5" y="-87.8" font-family="Times,serif" font-size="14.00">PointOfInterest</text>
</g>
<!-- PointOfInterest&#45;&gt;Favorite -->
<g id="edge5" class="edge">
<title>PointOfInterest&#45;&gt;Favorite</title>
<path fill="none" stroke="black" d="M189.02,-73.31C176.39,-64.07 160.64,-52.54 146.97,-42.53"/>
<polygon fill="black" stroke="black" points="148.9,-39.61 138.76,-36.53 144.77,-45.26 148.9,-39.61"/>
</g>
<!-- Category -->
<g id="node5" class="node">
<title>Category</title>
<polygon fill="none" stroke="black" points="171.5,-0.5 171.5,-36.5 253.5,-36.5 253.5,-0.5 171.5,-0.5"/>
<text text-anchor="middle" x="212.5" y="-14.8" font-family="Times,serif" font-size="14.00">Category</text>
</g>
<!-- PointOfInterest&#45;&gt;Category -->
<g id="edge3" class="edge">
<title>PointOfInterest&#45;&gt;Category</title>
<path fill="none" stroke="black" d="M212.5,-73.31C212.5,-65.29 212.5,-55.55 212.5,-46.57"/>
<polygon fill="black" stroke="black" points="216,-46.53 212.5,-36.53 209,-46.53 216,-46.53"/>
</g>
<!-- Review -->
<g id="node6" class="node">
<title>Review</title>
<polygon fill="none" stroke="black" points="271.5,-0.5 271.5,-36.5 339.5,-36.5 339.5,-0.5 271.5,-0.5"/>
<text text-anchor="middle" x="305.5" y="-14.8" font-family="Times,serif" font-size="14.00">Review</text>
</g>
<!-- PointOfInterest&#45;&gt;Review -->
<g id="edge4" class="edge">
<title>PointOfInterest&#45;&gt;Review</title>
<path fill="none" stroke="black" d="M235.01,-73.31C247.01,-64.16 261.93,-52.76 274.96,-42.82"/>
<polygon fill="black" stroke="black" points="277.37,-45.38 283.19,-36.53 273.12,-39.82 277.37,-45.38"/>
</g>
</g>
</svg>
