<?xml version="1.0" encoding="UTF-8" standalone="no"?>
<!DOCTYPE svg PUBLIC "-//W3C//DTD SVG 1.1//EN"
 "http://www.w3.org/Graphics/SVG/1.1/DTD/svg11.dtd">
<!-- Generated by graphviz version 2.42.4 (0)
 -->
<!-- Title: G Pages: 1 -->
<svg width="952pt" height="44pt"
 viewBox="0.00 0.00 952.33 44.00" xmlns="http://www.w3.org/2000/svg" xmlns:xlink="http://www.w3.org/1999/xlink">
<g id="graph0" class="graph" transform="scale(1 1) rotate(0) translate(4 40)">
<title>G</title>
<polygon fill="white" stroke="transparent" points="-4,4 -4,-40 948.33,-40 948.33,4 -4,4"/>
<!-- User -->
<g id="node1" class="node">
<title>User</title>
<ellipse fill="none" stroke="black" cx="33.15" cy="-18" rx="33.29" ry="18"/>
<text text-anchor="middle" x="33.15" y="-14.3" font-family="Times,serif" font-size="14.00">User</text>
</g>
<!-- Flutter -->
<g id="node2" class="node">
<title>Flutter</title>
<ellipse fill="none" stroke="black" cx="145.84" cy="-18" rx="43.59" ry="18"/>
<text text-anchor="middle" x="145.84" y="-14.3" font-family="Times,serif" font-size="14.00">Flutter</text>
</g>
<!-- User&#45;&gt;Flutter -->
<g id="edge1" class="edge">
<title>User&#45;&gt;Flutter</title>
<path fill="none" stroke="black" d="M66.46,-18C74.44,-18 83.2,-18 91.88,-18"/>
<polygon fill="black" stroke="black" points="91.98,-21.5 101.98,-18 91.98,-14.5 91.98,-21.5"/>
</g>
<!-- Nginx/TLS -->
<g id="node3" class="node">
<title>Nginx/TLS</title>
<ellipse fill="none" stroke="black" cx="285.18" cy="-18" rx="59.59" ry="18"/>
<text text-anchor="middle" x="285.18" y="-14.3" font-family="Times,serif" font-size="14.00">Nginx/TLS</text>
</g>
<!-- Flutter&#45;&gt;Nginx/TLS -->
<g id="edge2" class="edge">
<title>Flutter&#45;&gt;Nginx/TLS</title>
<path fill="none" stroke="black" d="M189.54,-18C197.69,-18 206.42,-18 215.15,-18"/>
<polygon fill="black" stroke="black" points="215.36,-21.5 225.36,-18 215.36,-14.5 215.36,-21.5"/>
</g>
<!-- Spring Security -->
<g id="node4" class="node">
<title>Spring Security</title>
<ellipse fill="none" stroke="black" cx="464.82" cy="-18" rx="83.69" ry="18"/>
<text text-anchor="middle" x="464.82" y="-14.3" font-family="Times,serif" font-size="14.00">Spring Security</text>
</g>
<!-- Nginx/TLS&#45;&gt;Spring Security -->
<g id="edge3" class="edge">
<title>Nginx/TLS&#45;&gt;Spring Security</title>
<path fill="none" stroke="black" d="M345.33,-18C353.53,-18 362.11,-18 370.74,-18"/>
<polygon fill="black" stroke="black" points="370.88,-21.5 380.88,-18 370.88,-14.5 370.88,-21.5"/>
</g>
<!-- REST API -->
<g id="node5" class="node">
<title>REST API</title>
<ellipse fill="none" stroke="black" cx="640.56" cy="-18" rx="55.79" ry="18"/>
<text text-anchor="middle" x="640.56" y="-14.3" font-family="Times,serif" font-size="14.00">REST API</text>
</g>
<!-- Spring Security&#45;&gt;REST API -->
<g id="edge4" class="edge">
<title>Spring Security&#45;&gt;REST API</title>
<path fill="none" stroke="black" d="M548.87,-18C557.34,-18 565.85,-18 574.09,-18"/>
<polygon fill="black" stroke="black" points="574.36,-21.5 584.36,-18 574.36,-14.5 574.36,-21.5"/>
</g>
<!-- PostgreSQL/PostGIS -->
<g id="node6" class="node">
<title>PostgreSQL/PostGIS</title>
<ellipse fill="none" stroke="black" cx="838.39" cy="-18" rx="105.88" ry="18"/>
<text text-anchor="middle" x="838.39" y="-14.3" font-family="Times,serif" font-size="14.00">PostgreSQL/PostGIS</text>
</g>
<!-- REST API&#45;&gt;PostgreSQL/PostGIS -->
<g id="edge5" class="edge">
<title>REST API&#45;&gt;PostgreSQL/PostGIS</title>
<path fill="none" stroke="black" d="M696.63,-18C704.77,-18 713.4,-18 722.22,-18"/>
<polygon fill="black" stroke="black" points="722.24,-21.5 732.24,-18 722.24,-14.5 722.24,-21.5"/>
</g>
</g>
</svg>
